PathFileType	4	(X/Y/Z)	D:\TRACE\v60_Jaco2_6-2-23\JustArmDRS_Motion3_1-v60.trc
DataRate	CameraRate	NumFrames	NumMarkers	Units	OrigDataRate	OrigDataStartFrame	OrigNumFrames
100.00	100.00	      14	9	mm	100.00	1012	      8089
Frame#	Time	front left toe			Front right toe			aft left toe			aft right toe			Arm			FL body			FR body			AL Body			AR Body			
		X1	Y1	Z1	X2	Y2	Z2	X3	Y3	Z3	X4	Y4	Z4	X5	Y5	Z5	X6	Y6	Z6	X7	Y7	Z7	X8	Y8	Z8	X9	Y9	Z9	

1012	10.110	-173.03886	5.60108	-242.56088	225.05461	6.78979	-176.52435	-262.32883	37.98595	394.82144	146.52196	35.11040	409.78168	65.79904	1184.92151	-362.69379	-29.47160	556.32831	-362.97586	126.63258	555.24091	-341.41940	-147.54483	609.60236	572.82391	2.20899	599.74646	593.32117	
1013	10.120	-173.01331	5.57631	-242.58325	224.96353	6.72111	-176.63161	-262.28583	38.04403	394.82281	146.53287	35.11233	409.79172	65.83588	1184.89502	-362.71817	-29.44217	556.32642	-363.03552	126.64713	555.24487	-341.46130	-147.55232	609.61475	572.80109	2.22184	599.74548	593.30719	
1014	10.130	-172.92671	5.41611	-242.33156	225.07027	6.72624	-176.62198	-262.29782	38.03756	394.79245	146.60114	35.12741	409.81894	65.88475	1184.89270	-362.75345	-29.44146	556.29565	-363.06274	126.70127	555.21521	-341.46631	-147.44130	609.64172	572.75946	2.24651	599.79004	593.27234	
1015	10.140	-172.84065	5.44928	-242.33368	225.05496	6.74705	-176.64874	-262.33987	38.13446	394.75095	146.53934	35.10616	409.77960	65.92719	1184.87524	-362.78766	-29.40151	556.28436	-363.05484	126.73516	555.25592	-341.48166	-147.44809	609.65430	572.75275	2.25821	599.82837	593.25952	
1016	10.150	-172.83733	5.46781	-242.33583	225.20909	6.80714	-176.59131	-262.32526	38.17603	394.73532	146.59346	35.10314	409.80853	65.93740	1184.86047	-362.81702	-29.37852	556.30322	-363.08505	126.47002	555.66339	-341.54523	-147.43393	609.68518	572.77222	2.25150	599.85327	593.24121	
1017	10.160	-172.77344	5.46034	-242.33887	225.16151	6.71655	-176.66362	-262.30984	38.12698	394.78174	146.59552	35.10590	409.77429	65.96173	1184.84753	-362.82895	-29.36644	556.28320	-363.06750	126.52299	555.65918	-341.54858	-147.38667	609.67664	572.75177	2.25325	599.82501	593.23993	
1018	10.170	-172.72121	5.46940	-242.34106	225.15527	6.65437	-176.75529	-262.25131	38.10431	394.79352	146.59256	35.11541	409.78384	65.97655	1184.84741	-362.82523	-29.29115	556.23883	-363.06772	126.91427	555.18396	-341.45715	-147.43703	609.71918	572.76019	2.26217	599.83099	593.24103	
1019	10.180	-172.65106	5.41027	-242.25963	225.24806	6.74246	-176.65262	-262.19156	38.05029	394.82693	146.61751	35.07553	409.77847	66.08593	1184.84424	-362.74454	-29.29234	556.26526	-363.08102	126.57989	555.68927	-341.49261	-147.38026	609.66797	572.74274	2.30054	599.81128	593.22131	
1020	10.190	-172.60408	5.45947	-242.30649	225.29980	6.75658	-176.64848	-262.22379	38.09366	394.80307	146.64314	35.09491	409.77277	66.03595	1184.85901	-362.79608	-29.23336	556.24994	-363.08487	126.55664	555.73120	-341.53537	-147.39087	609.66327	572.74695	2.26774	599.84070	593.25323	
1021	10.200	-172.60640	5.48423	-242.32465	225.25026	6.70161	-176.81447	-262.26556	38.15652	394.78552	146.64522	35.08804	409.75937	66.06072	1184.88989	-362.79434	-29.19087	556.23083	-363.02872	126.58286	555.66785	-341.54095	-147.34209	609.62250	572.77332	2.33350	599.82574	593.23547	
1022	10.210	-172.58669	5.50168	-242.32281	225.20454	6.68562	-176.76152	-262.22137	38.15769	394.78741	146.65459	35.08012	409.76575	66.09219	1184.90198	-362.76828	-29.19630	556.28094	-363.02585	126.56625	555.76453	-341.53772	-147.31287	609.69012	572.77167	2.41518	599.79187	593.25293	
1023	10.220	-172.53358	5.46978	-242.30150	225.19980	6.63157	-176.78357	-262.19897	38.14476	394.80054	146.68007	35.06865	409.76819	66.15746	1184.92969	-362.75394	-29.16345	556.27991	-363.01550	126.57413	555.71643	-341.54153	-147.25232	609.64233	572.81720	2.44820	599.77856	593.24078	
1024	10.230	-172.49289	5.52028	-242.33420	225.31047	6.65631	-176.70978	-262.12549	38.09684	394.82977	146.68422	35.08337	409.75726	66.18851	1184.90088	-362.74005	-29.10225	556.25195	-362.99161	126.63654	555.72284	-341.50992	-147.26587	609.64960	572.83319	2.43276	599.75879	593.29138	
1025	10.240	-172.45987	5.51690	-242.36102	225.26952	6.61396	-176.79353	-262.10468	38.10413	394.86282	146.75639	35.08621	409.79492	66.22607	1184.89575	-362.73676	-29.03895	556.22797	-362.97623	126.61507	555.75171	-341.51279	-147.22641	609.63879	572.84137	2.43680	599.74146	593.29773	
